<svg xmlns="http://www.w3.org/2000/svg" width="192" height="192" viewBox="0 0 192 192">
  <rect width="192" height="192" rx="32" fill="#6366f1"/>
  <g transform="translate(96,96)">
    <path d="M-24-32 L24-32 L24-28 L-24-28 Z" fill="white" opacity="0.3" transform="translate(0,-4)"/>
    <path d="M-20-28 L-20-10 L-10-10 L-10-28 Z M-6-28 L-6-10 L4-10 L4-28 Z M8-28 L8-10 L18-10 L18-28 Z" fill="white"/>
    <path d="M-28-8 L28-8 L28-4 L-28-4 Z" fill="white" opacity="0.3"/>
    <circle cx="-14" cy="8" r="8" fill="white"/>
    <circle cx="14" cy="8" r="8" fill="white"/>
    <path d="M-20 18 Q0 30 20 18" fill="none" stroke="white" stroke-width="3" stroke-linecap="round" opacity="0.7"/>
  </g>
</svg>
